<?xml version="1.0" standalone="no"?>
<!DOCTYPE svg PUBLIC "-//W3C//DTD SVG 20010904//EN"
 "http://www.w3.org/TR/2001/REC-SVG-20010904/DTD/svg10.dtd">
<svg version="1.0" xmlns="http://www.w3.org/2000/svg"
 width="600.000000pt" height="147.000000pt" viewBox="0 0 600.000000 147.000000"
 preserveAspectRatio="xMidYMid meet">
<metadata>
Created by potrace 1.15, written by Peter Selinger 2001-2017
</metadata>
<g transform="translate(0.000000,147.000000) scale(0.100000,-0.100000)"
fill="#000000" stroke="none">
<path d="M446 1449 c-206 -58 -360 -202 -425 -396 -27 -80 -29 -261 -5 -344
45 -153 168 -299 305 -364 239 -113 492 -72 674 110 118 117 175 254 175 417
0 232 -126 433 -335 533 -132 63 -268 78 -389 44z m64 -181 l0 -112 115 113
114 113 70 -4 c76 -4 115 -24 138 -69 9 -16 13 -81 13 -204 l0 -179 -113 -113
-113 -113 -112 0 -112 0 0 -57 0 -58 -102 -102 c-57 -57 -106 -103 -110 -103
-5 0 -8 125 -8 277 l0 278 107 107 108 108 -108 0 -107 0 0 115 0 115 110 0
110 0 0 -112z"/>
<path d="M510 991 c0 -89 4 -161 8 -161 4 0 30 23 57 50 47 47 52 50 102 50
l53 0 0 75 c0 68 -2 77 -29 107 -28 31 -33 33 -110 36 l-81 4 0 -161z"/>
<path d="M4371 1320 c-59 -13 -115 -51 -148 -102 -24 -36 -28 -52 -28 -112 0
-57 5 -80 24 -113 27 -47 76 -84 135 -103 45 -14 169 -8 229 11 l37 12 0 59
c0 43 4 60 15 64 8 4 15 12 15 20 0 11 -20 14 -95 14 -88 0 -95 -1 -95 -20 0
-16 7 -20 30 -20 29 0 30 -2 30 -45 0 -40 -3 -45 -26 -51 -37 -10 -99 1 -128
22 -61 45 -86 169 -48 244 25 51 92 83 156 76 65 -7 96 -28 96 -66 0 -20 5
-30 15 -30 18 0 21 8 30 71 l6 46 -38 11 c-56 16 -162 22 -212 12z"/>
<path d="M1360 1290 c0 -15 7 -20 25 -20 l25 0 0 -175 0 -175 -25 0 c-18 0
-25 -5 -25 -20 0 -19 7 -20 100 -20 92 0 100 2 100 19 0 13 -8 21 -22 23 -23
3 -23 4 -23 173 0 169 0 170 23 173 14 2 22 10 22 23 0 17 -8 19 -100 19 -93
0 -100 -1 -100 -20z"/>
<path d="M3307 1223 c-3 -5 -30 -71 -62 -148 -31 -77 -65 -147 -76 -157 -33
-28 -23 -38 41 -38 47 0 60 3 60 15 0 8 -9 15 -20 15 -23 0 -23 -2 -9 39 11
30 13 31 68 31 57 0 58 0 68 -35 10 -32 9 -35 -8 -35 -10 0 -19 -7 -19 -15 0
-12 16 -15 80 -15 64 0 80 3 80 15 0 8 -6 15 -13 15 -8 0 -38 58 -72 138 -32
75 -64 147 -72 160 -13 22 -37 29 -46 15z"/>
<path d="M3605 1216 c-61 -27 -85 -83 -61 -140 13 -31 22 -37 73 -51 77 -21
87 -28 91 -58 3 -27 -28 -57 -61 -57 -36 0 -77 29 -77 55 0 16 -6 25 -15 25
-10 0 -15 -10 -15 -27 0 -16 -3 -37 -6 -49 -5 -18 1 -23 40 -34 124 -35 234
38 211 139 -9 40 -26 52 -103 71 -66 16 -67 17 -67 50 0 28 5 36 27 44 38 13
88 -9 88 -40 0 -15 6 -24 15 -24 9 0 15 9 15 23 0 12 3 32 6 43 5 17 -1 24
-27 33 -42 15 -97 13 -134 -3z"/>
<path d="M1590 1205 c0 -8 8 -15 19 -15 15 0 19 -11 25 -70 3 -38 3 -101 0
-140 -6 -59 -10 -70 -25 -70 -11 0 -19 -7 -19 -15 0 -12 14 -15 65 -15 51 0
65 3 65 15 0 8 -9 15 -20 15 -19 0 -20 7 -20 100 0 55 2 100 3 100 2 0 40 -44
85 -98 95 -115 109 -128 142 -137 l25 -6 -3 136 c-4 154 0 180 28 188 11 3 20
10 20 16 0 7 -25 11 -65 11 -51 0 -65 -3 -65 -15 0 -8 9 -15 20 -15 19 0 20
-7 20 -97 l0 -98 -35 40 c-19 22 -61 73 -92 113 l-58 72 -57 0 c-45 0 -58 -3
-58 -15z"/>
<path d="M1990 1175 c0 -38 3 -45 20 -45 15 0 20 7 20 25 0 23 4 25 40 25 l40
0 0 -131 c0 -122 -1 -131 -20 -136 -11 -3 -20 -12 -20 -19 0 -11 19 -14 80
-14 61 0 80 3 80 14 0 7 -9 16 -20 19 -19 5 -20 14 -20 136 l0 131 40 0 c36 0
40 -2 40 -26 0 -19 5 -25 18 -22 12 2 18 15 20 46 l3 42 -160 0 -161 0 0 -45z"/>
<path d="M2320 1205 c0 -8 9 -15 20 -15 19 0 20 -7 20 -135 0 -111 -3 -137
-15 -141 -8 -4 -15 -12 -15 -20 0 -11 26 -14 130 -14 l130 0 0 45 c0 51 -24
63 -40 20 -8 -22 -15 -25 -60 -25 l-50 0 0 60 0 60 36 0 c27 0 37 -5 41 -20 3
-11 12 -20 19 -20 10 0 14 15 14 54 0 56 -17 85 -27 47 -4 -17 -13 -21 -44
-21 l-39 0 0 50 0 50 50 0 c43 0 50 -3 50 -20 0 -24 25 -27 34 -4 3 9 6 27 6
40 l0 24 -130 0 c-109 0 -130 -2 -130 -15z"/>
<path d="M2600 1205 c0 -8 9 -15 20 -15 19 0 20 -7 20 -136 0 -127 -1 -136
-20 -141 -11 -3 -20 -12 -20 -19 0 -11 19 -14 85 -14 67 0 85 3 85 14 0 8 -10
16 -22 18 -21 3 -23 9 -26 78 -1 41 1 70 5 64 24 -32 100 -19 133 24 16 20 21
37 18 69 -3 36 0 43 14 43 16 0 18 -13 18 -140 0 -87 -4 -140 -10 -140 -5 0
-10 -7 -10 -15 0 -13 21 -15 125 -15 116 0 125 1 125 19 0 10 3 33 6 50 6 27
4 31 -15 31 -15 0 -21 -6 -21 -24 0 -28 -16 -36 -71 -36 l-39 0 0 135 c0 128
1 135 20 135 11 0 20 7 20 15 0 12 -16 15 -85 15 -52 0 -85 -4 -85 -10 0 -7
-6 -7 -19 0 -11 5 -72 10 -135 10 -96 0 -116 -3 -116 -15z"/>
<path d="M3790 1174 c0 -38 3 -45 18 -42 9 2 18 13 20 26 3 18 10 22 41 22
l38 0 2 -91 c3 -126 -6 -179 -30 -179 -11 0 -19 -7 -19 -15 0 -12 16 -15 85
-15 69 0 85 3 85 15 0 8 -9 15 -20 15 -19 0 -20 7 -20 136 l0 135 38 -3 c30
-2 38 -7 40 -25 2 -13 10 -23 18 -23 10 0 14 13 14 45 l0 45 -155 0 -155 0 0
-46z"/>
<path d="M4650 1196 c0 -8 9 -18 20 -21 19 -6 20 -15 20 -126 0 -112 -1 -119
-20 -119 -13 0 -20 -7 -20 -20 0 -18 7 -20 75 -20 68 0 75 2 75 20 0 11 -6 20
-14 20 -19 0 -30 100 -21 180 6 54 9 60 31 60 53 0 57 -86 4 -97 -17 -3 -30
-9 -30 -14 0 -4 23 -44 51 -88 l52 -81 43 0 c37 0 44 3 44 20 0 11 -6 20 -13
20 -7 0 -31 28 -54 63 -38 56 -40 63 -23 71 47 22 54 111 10 133 -37 19 -230
18 -230 -1z"/>
<path d="M5012 1190 c-49 -30 -72 -75 -72 -143 0 -108 50 -157 162 -157 51 0
72 5 98 23 49 32 73 79 73 142 0 101 -58 155 -168 155 -42 0 -70 -6 -93 -20z
m158 -52 c29 -49 28 -148 -2 -182 -22 -25 -40 -31 -85 -28 -64 5 -90 164 -37
223 12 13 30 19 61 19 38 0 46 -4 63 -32z"/>
<path d="M5260 1195 c0 -8 9 -19 20 -25 18 -10 20 -21 20 -119 l0 -109 31 -26
c26 -22 40 -26 95 -26 56 0 67 3 96 29 l33 29 3 112 c3 84 7 113 18 117 8 3
14 11 14 19 0 10 -15 14 -55 14 -41 0 -55 -4 -55 -14 0 -8 9 -18 20 -21 18 -6
20 -15 20 -93 0 -115 -11 -136 -72 -140 -66 -4 -78 16 -78 136 0 85 2 94 20
99 11 3 20 12 20 19 0 11 -18 14 -75 14 -59 0 -75 -3 -75 -15z"/>
<path d="M5610 1196 c0 -8 7 -16 15 -20 12 -4 15 -28 15 -126 0 -100 -2 -120
-15 -120 -8 0 -15 -9 -15 -20 0 -18 7 -20 75 -20 68 0 75 2 75 20 0 13 -7 20
-20 20 -18 0 -20 7 -20 55 l0 55 39 0 c88 0 138 100 75 149 -23 18 -41 21
-125 21 -78 0 -99 -3 -99 -14z"/>
<path d="M1360 755 l0 -25 2240 0 2240 0 0 25 0 25 -2240 0 -2240 0 0 -25z"/>
<path d="M3688 537 c-35 -27 -45 -41 -52 -80 -7 -37 -14 -49 -33 -53 -27 -7
-31 -34 -5 -34 18 0 18 -3 0 -110 -10 -60 -24 -126 -31 -147 -11 -33 -16 -38
-42 -36 -31 2 -45 -10 -45 -39 0 -32 47 -21 88 20 40 40 61 98 92 255 11 54
13 57 41 57 16 0 29 4 29 9 0 5 3 17 7 27 5 15 2 16 -26 11 l-32 -7 7 38 c11
63 21 75 59 68 33 -7 45 4 45 40 0 26 -56 16 -102 -19z"/>
<path d="M4243 557 c-44 -11 -60 -37 -23 -37 26 0 26 -5 -10 -165 -32 -145
-36 -180 -20 -190 15 -9 100 43 100 60 0 19 -5 19 -35 -1 -22 -14 -23 -14 -19
3 14 62 64 318 64 329 0 8 -3 13 -7 13 -5 -1 -27 -7 -50 -12z"/>
<path d="M3890 535 c0 -9 9 -15 25 -15 21 0 25 -4 20 -22 -3 -13 -14 -77 -25
-143 -26 -151 -27 -155 -51 -155 -10 0 -19 -7 -19 -15 0 -12 16 -15 80 -15 64
0 80 3 80 15 0 9 -9 15 -24 15 -14 0 -27 3 -29 8 -3 4 0 37 7 74 9 56 14 66
26 58 25 -16 83 -11 117 10 63 38 85 136 40 178 -21 20 -34 22 -135 22 -93 0
-112 -3 -112 -15z m188 -31 c26 -18 29 -61 7 -103 -15 -30 -33 -41 -68 -41
-45 0 -49 11 -35 88 12 71 12 72 43 72 17 0 41 -7 53 -16z"/>
<path d="M4852 511 c-8 -4 -16 -27 -19 -50 -4 -32 -12 -45 -29 -53 -29 -14
-32 -38 -4 -31 24 6 24 6 5 -72 -17 -71 -19 -131 -4 -140 6 -4 33 8 60 26 66
46 64 62 -4 34 -15 -6 -17 -4 -13 16 3 13 10 50 16 82 11 54 13 57 41 57 22 0
29 5 29 20 0 17 -4 19 -26 14 -26 -7 -27 -6 -20 32 4 21 9 47 12 57 6 19 -20
24 -44 8z"/>
<path d="M3425 426 c-58 -25 -94 -91 -95 -172 0 -80 55 -110 130 -72 57 30 90
89 90 164 0 45 -4 56 -26 73 -31 24 -56 26 -99 7z m66 -47 c13 -26 1 -111 -22
-149 -15 -25 -25 -31 -47 -28 -24 3 -27 7 -30 48 -5 65 6 109 33 136 26 26 49
23 66 -7z"/>
<path d="M4415 426 c-42 -19 -62 -45 -85 -109 -30 -84 -24 -157 12 -157 5 0
30 20 56 44 l47 44 -3 -38 c-2 -21 0 -40 5 -43 14 -9 83 41 83 59 0 12 -4 12
-20 4 -27 -14 -26 3 5 109 14 47 25 87 25 90 0 12 -96 9 -125 -3z"/>
<path d="M4625 422 c-45 -28 -57 -47 -53 -84 3 -34 25 -52 81 -63 20 -4 27
-11 27 -29 0 -31 -22 -48 -57 -44 -22 2 -29 9 -31 31 -4 37 -28 34 -36 -4 -10
-52 -7 -58 28 -64 44 -9 69 0 112 37 26 23 34 38 34 63 0 39 -16 54 -64 62
-46 7 -61 25 -46 53 16 30 74 25 78 -7 5 -36 29 -27 35 14 4 20 5 39 3 41 -15
14 -84 11 -111 -6z"/>
<path d="M4998 420 c-20 -11 -40 -25 -43 -31 -11 -17 4 -24 26 -11 22 14 22
10 -7 -95 -16 -59 -18 -109 -4 -118 10 -6 50 13 84 39 28 22 10 39 -20 19 -29
-18 -30 -29 8 119 18 72 18 99 0 98 -4 -1 -24 -10 -44 -20z"/>
<path d="M5185 418 c-50 -29 -82 -77 -91 -133 -17 -117 65 -158 161 -81 38 30
26 45 -18 22 -18 -10 -43 -16 -57 -15 -22 4 -25 10 -28 48 -4 61 22 129 54
137 35 9 54 -2 54 -32 0 -39 23 -24 32 21 5 21 7 40 4 42 -2 2 -19 6 -37 9
-24 3 -46 -2 -74 -18z"/>
<path d="M5375 422 c-45 -28 -57 -47 -53 -84 3 -34 25 -52 81 -63 50 -10 31
-75 -22 -75 -35 0 -53 13 -46 32 4 9 1 19 -5 23 -16 10 -18 5 -26 -42 -6 -42
-6 -42 30 -48 68 -13 146 40 146 100 0 39 -14 52 -65 63 -46 9 -65 33 -45 57
20 25 74 16 78 -12 5 -36 29 -27 35 14 4 20 5 39 3 41 -15 14 -84 11 -111 -6z"/>
</g>
</svg>
